<svg id="Capa_1" enable-background="new 0 0 512 512" height="512" viewBox="0 0 512 512" width="512" xmlns="http://www.w3.org/2000/svg"><g><path d="m421 72.13-52.35-72.13h-52.65v167h105z"/><path d="m151 197v135h226c74.439 0 135-45.561 135-120v-15z"/><path d="m121 332v-105h-121v15c0 57.9 47.1 90 105 90z"/><path d="m331 407c0-24.81 20.19-45 45-45h-210c24.81 0 45 20.19 45 45s-20.19 45-45 45h-75v60h360v-60h-75c-24.81 0-45-20.19-45-45z"/><path d="m241 62h45v75h-45z"/><path d="m0 62h211v75h-211z"/></g></svg>